<svg width="750" height="750" viewBox="0 0 750 750" fill="none" xmlns="http://www.w3.org/2000/svg">
<path d="M68.8609 718.606L78.8705 678.629L51.2682 667.732L32.3083 698.978C32.3083 698.978 42.7616 727.332 31.1516 749.998C31.1607 750 45.6884 725.254 68.8609 718.606ZM50.3175 700.262C53.7152 698.87 57.6312 700.459 59.0346 703.795C60.4494 707.132 58.8377 710.973 55.44 712.365C52.0424 713.757 48.1263 712.168 46.7229 708.832C45.2946 705.482 46.9085 701.64 50.3175 700.262Z" fill="#BC4D13"/>
<path d="M358.447 254.929C278.961 320.12 174.901 454.406 86.6505 611.271L86.6007 611.21L71.1743 638.432L87.6239 644.761L96.3161 621.86C143.397 536.995 271.12 315.369 504.662 168.12C504.662 168.12 591.609 116.335 677.275 44.7174C656.418 62.1516 615.273 84.0044 592.963 98.1021C534.408 135.098 462.15 169.867 358.447 254.929Z" fill="#BC4D13"/>
<path d="M75.1515 487.5C57.0766 551.385 58.1111 600.041 65.1056 613.412H76.0388C106.228 550.88 251.631 324.367 342.134 253.464C435.901 179.999 508.232 137.253 569.066 106.079C590.428 95.1345 612.342 80.3102 632.103 65.4497C656.099 46.526 680.426 26.2849 701.727 6.47615L639.982 46.9696L667.512 4.86221L614.952 58.308L649.155 0C568.24 7.3001 493.152 47.7823 493.152 47.7823C463.112 83.4136 438.918 140.096 438.918 140.096C438.081 111.754 457.276 68.836 457.276 68.836C443.092 75.3122 389.203 106.093 389.203 106.093C362.843 127.959 354.656 185.454 354.656 185.454C349.644 162.775 367.165 119.056 367.165 119.056C291.237 162.789 237.003 237.286 237.003 237.286C199.464 310.973 230.33 368.468 218.645 354.703C206.961 340.939 209.473 290.732 209.473 290.732C130.209 366.857 121.874 403.287 121.874 403.287C108.528 435.679 96.8435 522.33 96.8435 522.33C89.3329 514.228 96.8435 468.884 96.8435 468.884C77.6505 509.377 86.8339 547.433 86.8339 547.433C77.6618 544.185 75.1515 487.5 75.1515 487.5Z" fill="#BC4D13"/>
<path d="M701.738 32.1227C701.738 32.1227 671.218 61.6966 632.114 91.0962C570.814 139.444 511.79 178.967 511.79 178.967C280.562 315.602 151.718 538.582 109.133 615.037H131.773C139.775 608.622 151.792 603.785 201.976 589.257C265.382 570.9 303.204 532.575 303.204 532.575C303.204 532.575 245.363 564.967 218.104 561.73C190.846 558.493 154.219 568.747 154.219 568.747C154.219 568.747 140.232 562.271 209.204 552.014C278.176 541.758 391.641 464.563 391.641 464.563C391.641 464.563 348.254 482.377 328.235 480.752C308.216 479.127 258.711 480.752 258.711 480.752C291.522 473.191 322.117 477.515 372.176 458.616C422.236 439.717 419.454 441.343 419.454 441.343C476.186 422.444 499.752 363.606 499.752 363.606C489.94 367.386 414.997 376.558 383.911 367.386C352.822 358.214 299.859 367.386 299.859 367.386C349.918 350.654 361.048 358.214 373.274 357.673C385.511 357.132 425.008 360.369 503.435 333.383C581.862 306.396 604.109 272.92 604.109 272.92L551.218 279.987C585.753 274.176 624.683 251.325 624.683 251.325C600.761 257.801 563.493 261.038 563.493 261.038C607.434 251.325 631.91 237.829 631.91 237.829C673.069 206.519 682.524 160.093 682.524 160.093C624.117 180.062 577.96 170.89 577.96 170.89C658.062 165.498 680.308 144.974 691.425 140.123C702.555 135.261 707.134 115.156 707.134 115.156C666.666 129.734 620.778 132.158 620.778 132.158C670.419 124.464 712.956 99.3583 712.956 99.3583V74.2279C693.763 85.161 659.99 93.6676 659.99 93.6676L712.549 59.6616C715.503 42.6484 701.738 32.1227 701.738 32.1227Z" fill="#BC4D13"/>
<path d="M53.3099 657.736L84.5702 670.258L90.3922 656.418L59.1342 643.898L53.3099 657.736Z" fill="#BC4D13"/>
<path d="M400.738 646.162C297.455 695.816 198.232 729.662 66.2736 734.094C53.9619 734.512 53.9007 746.824 66.2736 746.405C184.32 742.442 282.544 717.067 377.271 672.669C482.796 623.2 579.716 581.747 711.894 567.66C724.084 566.354 718.9 554.5 706.797 555.792C589.737 568.278 494.628 601.028 400.738 646.162Z" fill="#BC4D13"/>
</svg>
